<?xml version="1.0" encoding="UTF-8"?>
<svg width="128" height="128" viewBox="0 0 128 128" xmlns="http://www.w3.org/2000/svg">
  <defs>
    <linearGradient id="grad" x1="0%" y1="0%" x2="100%" y2="100%">
      <stop offset="0%" style="stop-color:#0EA5E9;stop-opacity:1" />
      <stop offset="100%" style="stop-color:#2563EB;stop-opacity:1" />
    </linearGradient>
  </defs>
  <!-- Rounded rectangle background similar to respite -->
  <rect width="128" height="128" rx="24" fill="url(#grad)"/>
  
  <!-- Stylized Folder Icon -->
  <!-- Back of the folder -->
  <path d="M28 36 C28 31 32 28 36 28 L54 28 L66 40 L92 40 C97 40 100 43 100 48 L100 88 C100 93 97 96 92 96 L36 96 C32 96 28 93 28 88 Z" fill="white" opacity="0.3"/>
  <!-- Front flap of the folder -->
  <path d="M24 50 C24 45 28 42 34 42 L94 42 C100 42 104 45 104 50 L104 88 C104 93 100 96 94 96 L34 96 C28 96 24 93 24 88 Z" fill="white" opacity="0.95"/>
  
  <!-- Accents / Documents inside -->
  <path d="M40 60 L88 60" stroke="#2563EB" stroke-width="4" stroke-linecap="round" opacity="0.6"/>
  <path d="M40 76 L72 76" stroke="#2563EB" stroke-width="4" stroke-linecap="round" opacity="0.6"/>
</svg>
